<?xml version="1.0" standalone="no"?>
<!DOCTYPE svg PUBLIC "-//W3C//DTD SVG 20010904//EN"
 "http://www.w3.org/TR/2001/REC-SVG-20010904/DTD/svg10.dtd">
<svg version="1.0" xmlns="http://www.w3.org/2000/svg"
 width="320.000000pt" height="320.000000pt" viewBox="0 0 320.000000 320.000000"
 preserveAspectRatio="xMidYMid meet">
<metadata>
Created by potrace 1.14, written by Peter Selinger 2001-2017
</metadata>
<g transform="translate(0.000000,320.000000) scale(0.100000,-0.100000)"
fill="#000000" stroke="none">
<path d="M2187 3194 c-1 -1 -72 -5 -157 -8 -85 -4 -175 -8 -200 -10 -69 -6
-161 -16 -200 -21 -19 -2 -57 -7 -85 -10 -68 -8 -254 -35 -285 -42 -14 -3
-187 -7 -385 -9 -198 -1 -382 -5 -409 -9 -154 -20 -282 -158 -301 -326 -3 -29
-10 -58 -15 -64 -17 -21 -49 -132 -54 -195 -22 -238 -23 -701 -1 -1015 9 -135
23 -291 30 -335 2 -14 7 -50 10 -80 4 -30 9 -64 11 -75 13 -60 16 -133 19
-350 2 -262 6 -285 64 -369 17 -24 54 -61 83 -82 29 -22 64 -52 78 -68 31 -37
154 -95 217 -102 26 -3 61 -8 78 -10 36 -5 479 -5 586 0 42 2 141 7 221 11 80
3 170 8 200 10 29 2 94 6 143 10 99 6 212 14 293 20 30 2 99 7 155 10 140 8
192 14 262 30 34 8 107 15 164 16 127 2 193 20 254 67 71 56 125 136 142 212
20 88 17 2355 -3 2425 -20 67 -70 143 -122 184 -46 37 -142 81 -175 81 -8 0
-16 4 -20 9 -4 8 -112 48 -148 55 -25 5 -83 16 -112 21 -41 7 -333 24 -338 19z"/>
</g>
</svg>
